<svg width="32" height="32" viewBox="0 0 32 32" fill="none" xmlns="http://www.w3.org/2000/svg">
<g clip-path="url(#clip0_720_2)">
<path d="M25 12.0001C25.0008 12.1317 24.9755 12.2621 24.9258 12.384C24.876 12.5058 24.8027 12.6166 24.71 12.7101L16.71 20.7101C16.617 20.8038 16.5064 20.8782 16.3846 20.929C16.2627 20.9797 16.132 21.0059 16 21.0059C15.868 21.0059 15.7373 20.9797 15.6154 20.929C15.4936 20.8782 15.383 20.8038 15.29 20.7101L7.29 12.7101C7.1017 12.5218 6.99591 12.2664 6.99591 12.0001C6.99591 11.7338 7.1017 11.4784 7.29 11.2901C7.47831 11.1018 7.7337 10.996 8 10.996C8.2663 10.996 8.5217 11.1018 8.71 11.2901L16 18.5901L23.29 11.2901C23.383 11.1963 23.4936 11.1219 23.6154 11.0712C23.7373 11.0204 23.868 10.9943 24 10.9943C24.132 10.9943 24.2627 11.0204 24.3846 11.0712C24.5064 11.1219 24.617 11.1963 24.71 11.2901C24.8027 11.3835 24.876 11.4943 24.9258 11.6162C24.9755 11.738 25.0008 11.8685 25 12.0001Z" fill="black"/>
</g>
<defs>
<clipPath id="clip0_720_2">
<rect width="32" height="32" fill="white" transform="matrix(0 -1 1 0 0 32)"/>
</clipPath>
</defs>
</svg>
