<svg width="138" height="138" viewBox="0 0 138 138" fill="none" xmlns="http://www.w3.org/2000/svg">
<path d="M69 0C30.9279 0 0 30.9279 0 69C0 107.072 30.9279 138 69 138C107.072 138 138 107.072 138 69C138 30.9279 107.072 0 69 0ZM69 6C103.829 6 132 34.1705 132 69C132 103.829 103.829 132 69 132C34.1705 132 6 103.829 6 69C6 34.1705 34.1705 6 69 6ZM69 27C66.6131 27 64.3239 27.9482 62.636 29.636C60.9482 31.3239 60 33.6131 60 36C60 38.3869 60.9482 40.6761 62.636 42.364C64.3239 44.0518 66.6131 45 69 45C71.3869 45 73.6761 44.0518 75.364 42.364C77.0518 40.6761 78 38.3869 78 36C78 33.6131 77.0518 31.3239 75.364 29.636C73.6761 27.9482 71.3869 27 69 27ZM57 57V63H60H63V102H60H57V108H60H63H75H78H81V102H78H75V57H72H60H57Z" fill="white"/>
</svg>
