<svg width="32" height="32" viewBox="0 0 32 32" fill="none" xmlns="http://www.w3.org/2000/svg">
<path d="M12.7 15.9998C12.7 16.6525 12.8936 17.2905 13.2562 17.8332C13.6188 18.3759 14.1342 18.7988 14.7372 19.0486C15.3402 19.2984 16.0037 19.3637 16.6438 19.2364C17.2839 19.1091 17.872 18.7948 18.3335 18.3333C18.795 17.8717 19.1093 17.2837 19.2366 16.6436C19.3639 16.0035 19.2986 15.3399 19.0488 14.7369C18.799 14.134 18.3761 13.6186 17.8334 13.256C17.2907 12.8933 16.6527 12.6998 16 12.6998C15.1248 12.6998 14.2854 13.0475 13.6666 13.6664C13.0477 14.2852 12.7 15.1246 12.7 15.9998ZM18.3 15.9998C18.3 16.4547 18.1651 16.8994 17.9124 17.2776C17.6597 17.6558 17.3005 17.9506 16.8802 18.1247C16.4599 18.2988 15.9975 18.3444 15.5513 18.2556C15.1051 18.1669 14.6953 17.9478 14.3737 17.6261C14.052 17.3045 13.833 16.8947 13.7442 16.4485C13.6555 16.0024 13.701 15.5399 13.8751 15.1196C14.0492 14.6994 14.344 14.3402 14.7222 14.0874C15.1004 13.8347 15.5451 13.6998 16 13.6998C16.61 13.6998 17.195 13.9421 17.6264 14.3735C18.0577 14.8048 18.3 15.3898 18.3 15.9998Z" fill="black"/>
<path d="M10.3 15.9998C10.3 15.3471 10.1065 14.7091 9.74386 14.1664C9.38125 13.6237 8.86587 13.2008 8.26287 12.951C7.65987 12.7012 6.99635 12.6359 6.35622 12.7632C5.71608 12.8905 5.12807 13.2048 4.66656 13.6664C4.20505 14.1279 3.89075 14.7159 3.76342 15.356C3.63609 15.9961 3.70144 16.6597 3.95121 17.2627C4.20098 17.8657 4.62395 18.381 5.16663 18.7437C5.70931 19.1063 6.34734 19.2998 7.00001 19.2998C7.87523 19.2998 8.7146 18.9521 9.33347 18.3333C9.95234 17.7144 10.3 16.875 10.3 15.9998ZM4.70001 15.9998C4.70001 15.5449 4.83491 15.1002 5.08763 14.722C5.34036 14.3438 5.69957 14.049 6.11984 13.8749C6.54011 13.7008 7.00256 13.6553 7.44872 13.744C7.89488 13.8327 8.3047 14.0518 8.62636 14.3735C8.94802 14.6951 9.16707 15.1049 9.25582 15.5511C9.34457 15.9973 9.29902 16.4597 9.12494 16.88C8.95086 17.3002 8.65606 17.6595 8.27783 17.9122C7.89959 18.1649 7.45491 18.2998 7.00001 18.2998C6.39002 18.2998 5.805 18.0575 5.37367 17.6262C4.94233 17.1948 4.70001 16.6098 4.70001 15.9998Z" fill="black"/>
<path d="M21.7 15.9998C21.7 16.6525 21.8936 17.2905 22.2562 17.8332C22.6188 18.3759 23.1342 18.7988 23.7372 19.0486C24.3402 19.2984 25.0037 19.3637 25.6438 19.2364C26.2839 19.1091 26.872 18.7948 27.3335 18.3333C27.795 17.8717 28.1093 17.2837 28.2366 16.6436C28.3639 16.0035 28.2986 15.3399 28.0488 14.7369C27.799 14.134 27.3761 13.6186 26.8334 13.256C26.2907 12.8933 25.6527 12.6998 25 12.6998C24.1248 12.6998 23.2854 13.0475 22.6666 13.6664C22.0477 14.2852 21.7 15.1246 21.7 15.9998ZM27.3 15.9998C27.3 16.4547 27.1651 16.8994 26.9124 17.2776C26.6597 17.6558 26.3005 17.9506 25.8802 18.1247C25.4599 18.2988 24.9975 18.3444 24.5513 18.2556C24.1051 18.1669 23.6953 17.9478 23.3737 17.6261C23.052 17.3045 22.833 16.8947 22.7442 16.4485C22.6555 16.0024 22.701 15.5399 22.8751 15.1196C23.0492 14.6994 23.344 14.3402 23.7222 14.0874C24.1004 13.8347 24.5451 13.6998 25 13.6998C25.61 13.6998 26.195 13.9421 26.6264 14.3735C27.0577 14.8048 27.3 15.3898 27.3 15.9998Z" fill="black"/>
</svg>
