<svg width="83" height="83" viewBox="0 0 83 83" fill="none" xmlns="http://www.w3.org/2000/svg">
<g clip-path="url(#clip0_716_27)">
<path d="M72.988 17.5H42.723L33.411 8.093C33.036 7.715 32.524 7.5 31.99 7.5H10.99C5.401 7.5 0 12.628 0 18.039V66.039C0 71.374 5.303 75.5 10.989 75.5H73.989C79.412 75.5 83.001 71.649 83.001 66.039V28.039C83 22.628 78.588 17.5 72.988 17.5ZM79 66.04C79 69.425 77.182 71.501 73.988 71.501H10.988C7.471 71.501 3.999 69.207 3.999 66.04V18.04C3.999 14.817 7.592 11.501 10.988 11.501H31.154L40.466 20.908C40.841 21.287 41.353 21.501 41.887 21.501H72.987C76.395 21.501 78.999 24.817 78.999 28.04L79 66.04Z" fill="black"/>
<path d="M39.5909 54.0114V35.2614H42.7727V54.0114H39.5909ZM31.8068 46.2273V43.0455H50.5568V46.2273H31.8068Z" fill="black"/>
</g>
<defs>
<clipPath id="clip0_716_27">
<rect width="83.001" height="83.001" fill="white"/>
</clipPath>
</defs>
</svg>
