<?xml version="1.0" encoding="iso-8859-1"?>
<!-- Generator: Adobe Illustrator 19.1.0, SVG Export Plug-In . SVG Version: 6.00 Build 0)  -->
<svg version="1.1" id="Capa_1" xmlns="http://www.w3.org/2000/svg" xmlns:xlink="http://www.w3.org/1999/xlink" x="0px" y="0px"
	 viewBox="0 0 51.619 51.619" style="enable-background:new 0 0 51.619 51.619;" xml:space="preserve">
<g>
	<g>
		<path d="M26.31,0c-1.104,0-2,0.896-2,2v32.844l-8.523-8.771c-0.781-0.781-1.922-0.781-2.704,0
			c-0.781,0.781-0.718,2.048,0.063,2.828l12.924,12.89c0.375,0.375,0.9,0.586,1.429,0.586c0.531,0,1.048-0.211,1.423-0.586
			l12.894-12.893c0.781-0.781,0.783-2.048,0.002-2.828c-0.781-0.781-2.297-0.781-3.078,0L28.31,36.254V2
			C28.31,0.895,27.414,0,26.31,0z"/>
		<path d="M48.31,47.326V41c0-1.104-0.896-2-2-2s-2,0.896-2,2v6.326c0,0.319,0.461,0.293,0.424,0.293H8.548
			c-0.342,0-1.239-0.027-1.239-0.293V41c0-1.104-0.896-2-2-2s-2,0.896-2,2v6.326c0,2.49,2.714,4.293,5.239,4.293h36.349
			C46.845,51.619,48.31,50.555,48.31,47.326z"/>
	</g>
</g>
<g>
</g>
<g>
</g>
<g>
</g>
<g>
</g>
<g>
</g>
<g>
</g>
<g>
</g>
<g>
</g>
<g>
</g>
<g>
</g>
<g>
</g>
<g>
</g>
<g>
</g>
<g>
</g>
<g>
</g>
</svg>
