<svg width="32" height="32" viewBox="0 0 32 32" fill="none" xmlns="http://www.w3.org/2000/svg">
<g clip-path="url(#clip0_720_2)">
<path d="M12 6.99981C12.1316 6.99905 12.2621 7.02428 12.3839 7.07404C12.5057 7.12381 12.6166 7.19713 12.71 7.28982L20.71 15.2898C20.8037 15.3828 20.8781 15.4934 20.9289 15.6152C20.9797 15.7371 21.0058 15.8678 21.0058 15.9998C21.0058 16.1318 20.9797 16.2625 20.9289 16.3844C20.8781 16.5063 20.8037 16.6169 20.71 16.7098L12.71 24.7098C12.5217 24.8981 12.2663 25.0039 12 25.0039C11.7337 25.0039 11.4783 24.8981 11.29 24.7098C11.1017 24.5215 10.9959 24.2661 10.9959 23.9998C10.9959 23.7335 11.1017 23.4781 11.29 23.2898L18.59 15.9998L11.29 8.70981C11.1963 8.61685 11.1219 8.50625 11.0711 8.38439C11.0203 8.26253 10.9942 8.13183 10.9942 7.99981C10.9942 7.8678 11.0203 7.7371 11.0711 7.61524C11.1219 7.49338 11.1963 7.38278 11.29 7.28982C11.3834 7.19713 11.4943 7.12381 11.6161 7.07404C11.7379 7.02428 11.8684 6.99905 12 6.99981Z" fill="black"/>
</g>
<defs>
<clipPath id="clip0_720_2">
<rect width="32" height="32" fill="white" transform="matrix(-1 0 0 -1 32 32)"/>
</clipPath>
</defs>
</svg>
