<svg width="32" height="32" viewBox="0 0 32 32" fill="none" xmlns="http://www.w3.org/2000/svg">
<g clip-path="url(#clip0_723_2)">
<mask id="mask0_723_2" style="mask-type:luminance" maskUnits="userSpaceOnUse" x="0" y="0" width="32" height="32">
<path d="M32 32L32 0L0 0L0 32L32 32Z" fill="white"/>
</mask>
<g mask="url(#mask0_723_2)">
<path d="M7 20.0001C6.9992 19.8685 7.0245 19.7381 7.0742 19.6162C7.124 19.4944 7.1973 19.3836 7.29 19.2901L15.29 11.2901C15.383 11.1964 15.4936 11.122 15.6154 11.0712C15.7373 11.0205 15.868 10.9943 16 10.9943C16.132 10.9943 16.2627 11.0205 16.3846 11.0712C16.5064 11.122 16.617 11.1964 16.71 11.2901L24.71 19.2901C24.8983 19.4784 25.0041 19.7338 25.0041 20.0001C25.0041 20.2664 24.8983 20.5218 24.71 20.7101C24.5217 20.8984 24.2663 21.0042 24 21.0042C23.7337 21.0042 23.4783 20.8984 23.29 20.7101L16 13.4101L8.71 20.7101C8.617 20.8039 8.5064 20.8783 8.3846 20.929C8.2627 20.9798 8.132 21.0059 8 21.0059C7.868 21.0059 7.7373 20.9798 7.6154 20.929C7.4936 20.8783 7.383 20.8039 7.29 20.7101C7.1973 20.6167 7.124 20.5059 7.0742 20.384C7.0245 20.2622 6.9992 20.1317 7 20.0001Z" fill="black"/>
</g>
</g>
<defs>
<clipPath id="clip0_723_2">
<rect width="32" height="32" fill="white" transform="matrix(-1 0 0 -1 32 32)"/>
</clipPath>
</defs>
</svg>
